HIERARCHY
ROOT Hips
{
	OFFSET 0.00000 0.00000 0.00000
	CHANNELS 6 Xposition Yposition Zposition Yrotation Zrotation Xrotation 
	JOINT Lumbar
	{
		OFFSET 0 0 0
		CHANNELS 3 Zrotation Xrotation Yrotation
		JOINT Neck
		{
			OFFSET 0.00 0.2701 0.00
			CHANNELS 3 Zrotation Xrotation Yrotation
			End Site
			{
				OFFSET 0.00 0.1379 0.00
			}
		}
		JOINT RightShoulder
		{
			OFFSET 0.0119 0.2289 0.1181
			CHANNELS 3 Zrotation Xrotation Yrotation
			JOINT RightElbow
			{
				OFFSET 0.00 -0.1475 0.00
				CHANNELS 2 Zrotation Yrotation
				JOINT RightWrist
				{
					OFFSET 0.00 -0.1605 0.00
					CHANNELS 2 Zrotation Xrotation
					End Site
					{
						OFFSET 0.0040 -0.1068 0.0006
					}
				}
			}
		}
		JOINT LeftShoulder
		{
			OFFSET 0.0119 0.2289 -0.1181
			CHANNELS 3 Zrotation Xrotation Yrotation
			JOINT LeftElbow
			{
				OFFSET 0.00 -0.1475 0.00
				CHANNELS 2 Zrotation Yrotation
				JOINT LeftWrist
				{
					OFFSET 0.00 -0.1605 0.00
					CHANNELS 2 Zrotation Xrotation
					End Site
					{
						OFFSET 0.0040 -0.1068 -0.0006
					}
				}
			}
		}
	}
	JOINT RightHip
	{
		OFFSET 0.0316 -0.0424 0.0458
		CHANNELS 3 Zrotation Xrotation Yrotation
		JOINT RightKnee
		{
			OFFSET 0.00 -0.2438 0.00
			CHANNELS 1 Zrotation
			JOINT RightAnkle
			{
				OFFSET 0.00 -0.2449 0.00
				CHANNELS 3 Zrotation Xrotation Yrotation
				End Site
				{
					OFFSET 0.1237 -0.0542 0.0051
				}
			}
		}
	}
	JOINT LeftHip
	{
		OFFSET 0.0316 -0.0424 -0.0458
		CHANNELS 3 Zrotation Xrotation Yrotation
		JOINT LeftKnee
		{
			OFFSET 0.00 -0.2438 0.00
			CHANNELS 1 Zrotation
			JOINT LeftAnkle
			{
				OFFSET 0.00 -0.2449 0.00
				CHANNELS 3 Zrotation Xrotation Yrotation
				End Site
				{
					OFFSET 0.1237 -0.0542 -0.0051
				}
			}
		}
	}
}
MOTION
Frames: 26
Frame Time: 0.02
0 0.57926 -0 218.64174 0 2.76327 8.89782 -0.11808 -2.99466 -44.3357 0.48312 4.22307 35.55974 -13.7331 -1.79227 12.71409 84.20701 -0.04213 0.46695 36.99415 3.90098 3.90864 7.08287 -73.74241 -5.30863 -1.3834 4.22348 2.22988 11.73935 -22.83945 11.90749 -9.64704 -13.44635 3.55822 -4.27743 -11.48856 -18.31173 9.14866 6.78597 9.78162
-0.00063 0.57922 0.00045 219.11988 0 2.78407 8.97502 -0.17444 -2.91426 -43.9284 0.62042 4.31649 35.08293 -13.82738 -1.87684 12.63483 84.0481 -0.05273 0.5374 36.62404 3.80196 2.80633 7.29455 -74.00442 -5.14481 -1.3283 4.0979 2.17161 11.2562 -22.81389 11.97531 -9.70968 -13.41866 3.5332 -4.32144 -12.01046 -18.29748 9.15378 6.80015 9.79628
-0.00126 0.57917 0.0009 219.59547 0 2.80603 9.05174 -0.2318 -2.83459 -43.52111 0.75655 4.4084 34.60687 -13.9199 -1.9594 12.55661 83.88988 -0.06348 0.60713 36.25355 3.70475 1.70846 7.505 -74.2656 -4.98293 -1.27349 3.97312 2.11286 10.77695 -22.78974 12.04387 -9.77319 -13.39192 3.5081 -4.36609 -12.52826 -18.28337 9.15912 6.81388 9.80964
-0.00189 0.57912 0.00134 220.06576 0 2.83336 9.12633 -0.29425 -2.7573 -43.10894 0.89011 4.49599 34.12849 -14.00737 -2.03483 12.48147 83.73338 -0.07419 0.67547 35.87677 3.61238 0.61603 7.71264 -74.52669 -4.82715 -1.21933 3.85087 2.05107 10.30974 -22.77159 12.11662 -9.84124 -13.36925 3.48312 -4.41491 -13.03623 -18.27041 9.16503 6.82647 9.81978
-0.00251 0.5791 0.0018 220.56434 0 2.8329 9.21103 -0.3304 -2.66772 -42.72146 1.03821 4.60745 33.66157 -14.12292 -2.14811 12.38967 83.56837 -0.08415 0.7521 35.5319 3.49263 -0.50702 7.93517 -74.78903 -4.63901 -1.16178 3.71586 2.00474 9.78014 -22.72241 12.16785 -9.8858 -13.32562 3.45833 -4.44305 -13.59804 -18.25224 9.16744 6.84571 9.84918
-0.00317 0.57901 0.00223 221.00244 0 2.89076 9.27507 -0.4217 -2.604 -42.28293 1.15478 4.66763 33.17148 -14.17805 -2.18117 12.33339 83.42115 -0.09634 0.81048 35.12083 3.43209 -1.56297 8.12598 -75.04794 -4.51951 -1.11143 3.60757 1.9262 9.38208 -22.73839 12.26408 -9.97961 -13.32596 3.4326 -4.51395 -14.04421 -18.2445 9.17756 6.85043 9.8363
-0.00394 0.5787 0.00258 221.28109 0 3.12066 9.27494 -0.67697 -2.61446 -41.67981 1.18946 4.58853 32.59657 -14.06935 -1.98659 12.37545 83.3236 -0.11033 0.82389 34.50141 3.52951 -2.46785 8.23155 -75.30886 -4.5934 -1.08039 3.57613 1.74958 9.35704 -22.9457 12.49561 -10.22011 -13.45579 3.40834 -4.71715 -14.18225 -18.27197 9.2076 6.81736 9.71483
-0.00477 0.57832 0.00289 221.49768 0 3.40747 9.25534 -0.98588 -2.65048 -41.02917 1.19135 4.45719 32.0017 -13.89906 -1.71257 12.45324 83.24366 -0.12773 0.81799 33.81961 3.68784 -3.30049 8.3048 -75.56455 -4.73599 -1.05658 3.57101 1.54207 9.46271 -23.21675 12.77069 -10.50846 -13.62866 3.38246 -4.96101 -14.20181 -18.30904 9.24576 6.76915 9.54915
-0.00558 0.57798 0.00322 221.73796 0 3.6616 9.2492 -1.26323 -2.67312 -40.4144 1.2049 4.34804 31.4285 -13.75475 -1.47778 12.51471 83.15536 -0.14597 0.81731 33.18166 3.82203 -4.14409 8.3914 -75.81541 -4.84478 -1.02994 3.55189 1.35419 9.5025 -23.45174 13.01912 -10.76846 -13.77676 3.35449 -5.17746 -14.26828 -18.33734 9.28107 6.72631 9.39811
-0.00637 0.5776 0.00356 221.99686 0 3.9452 9.22328 -1.57164 -2.7035 -39.738 1.2322 4.24523 30.80125 -13.61865 -1.22712 12.57699 83.06918 -0.15269 0.83126 32.47661 3.94119 -5.07671 8.48355 -76.09638 -4.96444 -1.00182 3.54165 1.14205 9.57067 -23.71741 13.29693 -11.05693 -13.94688 3.33799 -5.43211 -14.36338 -18.38336 9.3126 6.68985 9.26965
-0.00721 0.5773 0.00386 222.2027 0 4.18005 9.23432 -1.82716 -2.72344 -39.18054 1.22296 4.11707 30.28305 -13.45117 -0.99399 12.64548 82.98201 -0.18603 0.81061 31.8987 4.10621 -5.81072 8.55658 -76.31372 -5.07781 -0.97797 3.51886 0.97394 9.6095 -23.93338 13.52331 -11.29668 -14.08131 3.29782 -5.61619 -14.37146 -18.39584 9.3542 6.6365 9.08423
-0.00817 0.57726 0.00411 222.27361 0 4.27439 9.3488 -1.93163 -2.71161 -38.94737 1.12151 3.92893 30.06145 -13.20877 -0.79926 12.72764 82.89433 -0.27549 0.69579 31.66817 4.38259 -5.97972 8.58383 -76.3539 -5.15655 -0.96881 3.45758 0.92776 9.54639 -24.00485 13.60241 -11.39734 -14.10721 3.18749 -5.60137 -14.16215 -18.30421 9.41943 6.54035 8.74764
-0.00917 0.57731 0.00432 222.29406 0 4.31642 9.50177 -1.97965 -2.68783 -38.83877 0.98412 3.71738 29.95291 -12.93737 -0.62974 12.81405 82.80386 -0.39397 0.54778 31.57137 4.70329 -5.95725 8.59315 -76.33065 -5.22663 -0.963 3.38232 0.92817 9.44736 -24.02276 13.6274 -11.44616 -14.09566 3.05439 -5.51321 -13.87066 -18.18023 9.49489 6.42775 8.35627
-0.01015 0.57733 0.00455 222.33986 0 4.37694 9.63931 -2.04803 -2.66727 -38.6831 0.86297 3.51861 29.79765 -12.68168 -0.46886 12.89476 82.71031 -0.51096 0.41674 31.42559 5.00364 -6.04561 8.61129 -76.33838 -5.30106 -0.95236 3.31173 0.91216 9.3573 -24.05951 13.67345 -11.51381 -14.10085 2.93515 -5.45452 -13.62061 -18.07703 9.56718 6.32249 7.99292
-0.01113 0.57732 0.00479 222.37284 0 4.46099 9.76744 -2.14006 -2.65669 -38.48429 0.74179 3.30981 29.61837 -12.41389 -0.22316 12.9917 82.63552 -0.5817 0.27567 31.22736 5.30609 -6.03304 8.62544 -76.33723 -5.37636 -0.95518 3.24906 0.87556 9.30211 -24.12089 13.7353 -11.6024 -14.10853 2.80103 -5.41278 -13.34853 -17.9484 9.63369 6.217 7.6143
-0.01211 0.57738 0.00499 222.42187 0 4.48381 9.92461 -2.16942 -2.62247 -38.40705 0.61163 3.11597 29.52079 -12.16429 -0.15767 13.05653 82.52102 -0.75182 0.14957 31.17153 5.61503 -6.18346 8.64408 -76.33908 -5.4466 -0.9316 3.16638 0.8926 9.165 -24.11845 13.7516 -11.63531 -14.10182 2.69253 -5.31876 -13.10516 -17.86506 9.71435 6.10861 7.25574
-0.01305 0.57758 0.00513 222.52316 0 4.34183 10.15161 -2.03304 -2.52272 -38.62015 0.47402 2.97894 29.58176 -11.98056 -0.61122 13.02517 82.29575 -1.22214 0.05578 31.46975 5.92053 -6.85379 8.67944 -76.36937 -5.50742 -0.82601 3.03036 1.05288 8.80192 -23.94319 13.64816 -11.51905 -14.06207 2.66053 -5.08972 -12.95479 -17.91399 9.83316 5.99359 6.96077
-0.01398 0.57783 0.00524 222.64318 0 4.14124 10.40627 -1.83635 -2.39987 -38.95279 0.32742 2.85656 29.72808 -11.81518 -1.23862 12.96484 82.03121 -1.78541 -0.02038 31.90686 6.23223 -7.69043 8.72014 -76.40417 -5.56277 -0.69513 2.87489 1.26458 8.35876 -23.70679 13.50172 -11.34968 -14.00932 2.65526 -4.81194 -12.8379 -18.00991 9.96544 5.87689 6.68933
-0.01493 0.57804 0.00537 222.75823 0 3.97288 10.64964 -1.67143 -2.28977 -39.2426 0.17916 2.72092 29.8618 -11.63565 -1.77119 12.9187 81.78533 -2.2844 -0.09087 32.2866 6.54827 -8.43672 8.75853 -76.43372 -5.61852 -0.58135 2.72912 1.4485 7.95698 -23.50473 13.3796 -11.20987 -13.96403 2.63743 -4.56196 -12.71054 -18.08452 10.09057 5.76258 6.41047
-0.01584 0.5783 0.00548 222.85777 0 3.77949 10.89107 -1.4867 -2.17049 -39.49439 0.05287 2.61094 29.89064 -11.47817 -2.37923 12.85827 81.53455 -2.87703 -0.21259 32.65209 6.83758 -9.24027 8.79564 -76.47403 -5.6823 -0.44442 2.57902 1.65223 7.53225 -23.27416 13.23598 -11.04595 -13.91116 2.6198 -4.28578 -12.56041 -18.157 10.22069 5.64032 6.11487
-0.01682 0.57849 0.00561 222.99318 0 3.6245 11.13997 -1.32895 -2.0641 -39.84438 -0.11956 2.45303 30.15454 -11.2813 -2.8612 12.83341 81.28641 -3.29687 -0.23267 33.07177 7.18106 -9.96451 8.8371 -76.49453 -5.7288 -0.34915 2.43377 1.8268 7.13766 -23.08792 13.12695 -10.91959 -13.87115 2.60933 -4.05331 -12.4665 -18.24651 10.3431 5.53509 5.86166
-0.01806 0.57844 0.00583 223.23695 0 3.59412 11.42474 -1.26657 -2.0068 -40.50102 -0.42749 2.14461 31.05894 -10.95744 -3.03909 12.81881 81.04059 -3.21205 0.10993 33.66322 7.69239 -10.44782 8.88759 -76.45332 -5.72332 -0.37955 2.3044 1.90388 6.83803 -23.04973 13.12995 -10.91636 -13.87272 2.60435 -3.95572 -12.52261 -18.36308 10.44421 5.47161 5.7095
-0.01937 0.57831 0.00606 223.51409 0 3.60385 11.71155 -1.23259 -1.96196 -41.23876 -0.77912 1.79045 32.18978 -10.59704 -3.06959 12.86836 80.80164 -2.95104 0.54045 34.29247 8.25375 -10.84323 8.9426 -76.39342 -5.70165 -0.45188 2.18111 1.95041 6.57297 -23.05656 13.16839 -10.95183 -13.88731 2.60727 -3.90373 -12.63421 -18.49688 10.53641 5.42639 5.60128
-0.02063 0.57822 0.00626 223.76678 0 3.59271 11.98311 -1.18181 -1.90619 -41.89742 -1.10423 1.46671 33.21373 -10.26123 -3.10845 12.93867 80.56896 -2.7735 0.87148 34.86798 8.77944 -11.26733 8.99686 -76.34633 -5.69125 -0.50212 2.05658 2.01359 6.29764 -23.03603 13.18696 -10.96568 -13.89424 2.61168 -3.82973 -12.71866 -18.62856 10.63047 5.37669 5.48008
-0.022 0.57812 0.00658 224.05824 0 3.59072 12.31708 -1.14519 -1.87142 -42.74223 -1.4591 1.10213 34.27518 -9.88815 -3.39366 12.75778 80.29476 -2.58424 1.44544 35.60611 9.36141 -11.74389 9.04615 -76.28127 -5.66451 -0.56437 1.92484 2.06697 5.99725 -23.04238 13.21992 -10.99469 -13.90808 2.5953 -3.75944 -12.81159 -18.73789 10.73426 5.31108 5.33056
-0.02314 0.57803 0.00665 224.27795 0 3.57987 12.51998 -1.08677 -1.79671 -43.21244 -1.76063 0.81241 35.28905 -9.58904 -3.13754 13.16521 80.1098 -2.37716 1.54537 36.00849 9.83618 -12.08911 9.10635 -76.24897 -5.66757 -0.61181 1.80993 2.13277 5.75742 -23.00433 13.23185 -11.00195 -13.91076 2.62406 -3.69288 -12.9006 -18.89708 10.81546 5.28261 5.24967
